<svg width="300" height="300" viewBox="0 0 300 300" fill="none" xmlns="http://www.w3.org/2000/svg">
<path d="M150.5 244C100.046 244 59 201.832 59 150C59 98.1678 100.046 56 150.5 56C200.954 56 242 98.1678 242 150C242 201.832 200.954 244 150.5 244ZM150.5 62.2666C103.411 62.2666 65.0999 101.624 65.0999 150C65.0999 198.376 103.411 237.733 150.5 237.733C197.589 237.733 235.9 198.376 235.9 150C235.9 101.624 197.589 62.2666 150.5 62.2666V62.2666Z" fill="#F0544B"/>
<path d="M211.5 184.467H110.85C109.166 184.467 107.8 183.065 107.8 181.333C107.8 179.6 109.166 178.2 110.85 178.2H211.5C213.184 178.2 214.549 179.6 214.549 181.333C214.549 183.065 213.184 184.467 211.5 184.467Z" fill="#F0544B"/>
<path d="M211.501 153.134H141.35C139.667 153.134 138.3 151.733 138.3 150C138.3 148.267 139.667 146.866 141.35 146.866H211.501C213.184 146.866 214.55 148.267 214.55 150C214.55 151.733 213.184 153.134 211.501 153.134Z" fill="#F0544B"/>
<path d="M211.5 121.8H107.801C106.117 121.8 104.75 120.4 104.75 118.667C104.75 116.935 106.117 115.533 107.801 115.533H211.5C213.184 115.533 214.55 116.935 214.55 118.667C214.55 120.4 213.184 121.8 211.5 121.8Z" fill="#F0544B"/>
<path d="M123.05 162.533C121.366 162.533 120 161.133 120 159.4V137.467C120 135.734 121.366 134.333 123.05 134.333C124.734 134.333 126.1 135.734 126.1 137.467V159.4C126.1 161.133 124.734 162.533 123.05 162.533Z" fill="#F0544B"/>
<line x1="90.7363" y1="137.711" x2="90.7363" y2="168.164" stroke="#F0544B" stroke-width="7" stroke-linecap="round"/>
<line x1="76.082" y1="152.008" x2="105.539" y2="152.008" stroke="#F0544B" stroke-width="7" stroke-linecap="round"/>
</svg>
