<svg width="300" height="300" viewBox="0 0 300 300" fill="none" xmlns="http://www.w3.org/2000/svg">
<path d="M87.583 227.391H66.1907V186.142H74.4528C76.4383 186.142 78.0481 184.215 78.0481 181.838C78.0481 179.461 76.4383 177.534 74.4528 177.534H66.1907V151.304H104.859C106.844 151.304 108.454 149.377 108.454 147C108.454 144.623 106.844 142.696 104.859 142.696H66.1907V128.137C66.1907 118.673 72.6223 110.974 80.5271 110.974H103.525C111.43 110.974 117.861 118.673 117.861 128.137V161.408C117.861 163.785 119.471 165.712 121.456 165.712C123.442 165.712 125.051 163.785 125.051 161.408V128.137C125.051 115.849 117.831 105.543 108.201 102.979V86.6259C108.201 84.2491 106.592 82.3221 104.606 82.3221H79.4454C77.4599 82.3221 75.85 84.2491 75.85 86.6259V102.98C66.2208 105.543 59 115.849 59 128.138V231.695C59 234.072 60.6098 235.999 62.5953 235.999H87.583C89.5685 235.999 91.1784 234.072 91.1784 231.695C91.1784 229.318 89.5685 227.391 87.583 227.391ZM83.0407 90.9296H101.011V102.367H83.0407V90.9296ZM138.486 165.778C137.817 162.081 137.478 158.265 137.478 154.437C137.478 139.024 139.889 129.079 145.065 123.142C150.995 116.338 159.365 116.172 167.427 116.584C168.92 116.661 170.411 116.762 171.99 116.869C173.807 116.992 175.659 117.117 177.535 117.205L174.381 101.514C173.917 99.2025 175.105 96.8785 177.036 96.3223C178.962 95.7676 180.907 97.1884 181.372 99.4995L184.945 117.273C187.427 117.195 189.87 117.03 192.254 116.868C202.63 116.166 212.429 115.504 219.092 123.041C224.328 128.964 226.767 138.94 226.767 154.437C226.767 158.148 226.446 161.856 225.815 165.458C225.407 167.783 223.504 169.275 221.557 168.786C219.614 168.298 218.369 166.016 218.777 163.689C219.307 160.668 219.575 157.554 219.575 154.437C219.575 141.648 217.802 133.425 214.153 129.297C209.742 124.307 202.203 124.817 192.66 125.462C189.3 125.689 185.828 125.925 182.196 125.928C182.145 125.929 182.093 125.929 182.04 125.928C178.412 125.924 174.941 125.689 171.583 125.462C170.03 125.356 168.562 125.257 167.119 125.183C159.175 124.777 153.546 125.334 150.039 129.356C146.424 133.502 144.668 141.706 144.668 154.437C144.668 157.653 144.952 160.856 145.513 163.956C145.934 166.279 144.701 168.57 142.76 169.073C142.504 169.14 142.248 169.171 141.996 169.171C140.341 169.172 138.851 167.795 138.486 165.778ZM195.524 108.223C195.903 108.239 196.28 108.247 196.657 108.247C205.198 108.247 213.483 104.16 219.536 96.914C225.856 89.3475 229.3 78.8716 228.982 68.1719C228.915 65.9146 227.402 64.1033 225.516 64.0237C216.581 63.6476 207.825 67.7679 201.508 75.3329C195.188 82.8956 191.743 93.3715 192.058 104.074C192.125 106.332 193.639 108.144 195.524 108.223ZM206.593 81.4194C210.655 76.5551 216.011 73.5215 221.674 72.7834C221.079 79.5936 218.581 85.8851 214.452 90.828C210.321 95.7735 205.061 98.7652 199.367 99.4758C199.961 92.6592 202.461 86.3634 206.593 81.4194ZM113.962 214.822C113.962 212.445 115.571 210.518 117.557 210.518H136.537C138.522 210.518 140.132 212.445 140.132 214.822C140.132 217.199 138.522 219.126 136.537 219.126H117.557C115.571 219.126 113.962 217.199 113.962 214.822ZM238.405 177.381H89.8827C87.8972 177.381 86.2873 179.308 86.2873 181.685C86.2873 184.062 87.8972 185.989 89.8827 185.989H97.8801V215.678C97.8801 226.884 105.496 236 114.857 236H213.429C222.79 236 230.405 226.884 230.405 215.678V185.989H238.405C240.39 185.989 242 184.062 242 181.685C242 179.308 240.39 177.381 238.405 177.381ZM223.215 215.678C223.215 222.137 218.825 227.392 213.43 227.392H114.857C109.461 227.392 105.071 222.137 105.071 215.678V185.989H223.215V215.678ZM160.047 214.822C160.047 217.199 158.437 219.126 156.451 219.126H155.854C153.869 219.126 152.259 217.199 152.259 214.822C152.259 212.445 153.869 210.518 155.854 210.518H156.451C158.437 210.518 160.047 212.445 160.047 214.822ZM113.962 199.099C113.962 196.722 115.571 194.795 117.557 194.795H156.451C158.437 194.795 160.047 196.722 160.047 199.099C160.047 201.476 158.437 203.403 156.451 203.403H117.557C115.571 203.403 113.962 201.476 113.962 199.099ZM203.559 199.099C203.559 196.722 205.169 194.795 207.155 194.795H207.751C209.736 194.795 211.346 196.722 211.346 199.099C211.346 201.476 209.736 203.403 207.751 203.403H207.155C205.169 203.403 203.559 201.476 203.559 199.099Z" fill="#F0544B"/>
</svg>
