<svg width="300" height="300" viewBox="0 0 300 300" fill="none" xmlns="http://www.w3.org/2000/svg">
<path d="M116.247 195.075C115.823 195.717 115.166 195.91 114.549 195.91C113.932 195.91 113.315 195.717 112.891 195.075L108.455 188.134V202.206C108.455 203.075 107.183 203.524 105.949 203.524C104.675 203.524 103.441 203.075 103.441 202.206V182.125C103.441 180.584 104.675 180.038 105.949 180.038C107.761 180.038 108.572 180.359 109.844 182.254L114.589 189.451L119.333 182.254C120.607 180.359 121.455 180.038 123.268 180.038C124.54 180.038 125.774 180.584 125.774 182.125V202.206C125.774 203.075 124.502 203.524 123.268 203.524C121.994 203.524 120.761 203.075 120.761 202.206V188.391L116.247 195.075Z" fill="#F0544B"/>
<path d="M139.735 190.125H145.598C146.6 190.125 147.178 190.929 147.178 191.796C147.178 192.535 146.677 193.403 145.598 193.403H139.735V199.86H150.65C151.654 199.86 152.232 200.728 152.232 201.724C152.232 202.591 151.731 203.524 150.65 203.524H136.919C135.801 203.524 134.72 203.073 134.72 202.206V181.354C134.72 180.487 135.799 180.036 136.919 180.036H150.65C151.731 180.036 152.232 180.969 152.232 181.836C152.232 182.833 151.654 183.7 150.65 183.7H139.735V190.125Z" fill="#F0544B"/>
<path d="M172.789 202.206L164.496 189.29V202.206C164.496 203.074 163.224 203.524 161.988 203.524C160.716 203.524 159.481 203.074 159.481 202.206V181.354C159.481 180.455 160.716 180.038 161.988 180.038C163.802 180.038 164.534 180.359 165.731 182.253L173.175 194.238V181.322C173.175 180.423 174.409 180.036 175.682 180.036C176.916 180.036 178.188 180.421 178.188 181.322V202.206C178.188 203.073 176.916 203.524 175.682 203.524C174.486 203.524 173.445 203.203 172.789 202.206Z" fill="#F0544B"/>
<path d="M200.521 181.322C200.521 180.423 201.754 180.038 203.027 180.038C204.262 180.038 205.534 180.423 205.534 181.322V196.359C205.534 201.725 201.446 203.717 196.277 203.717C191.069 203.717 187.02 201.725 187.02 196.359V181.322C187.02 180.423 188.253 180.038 189.527 180.038C190.761 180.038 192.033 180.423 192.033 181.322V196.359C192.033 198.865 193.615 200.055 196.277 200.055C198.938 200.055 200.519 198.865 200.519 196.359V181.322H200.521Z" fill="#F0544B"/>
<path d="M210.437 209.885H192.102C190.301 209.885 188.843 211.1 188.843 212.598C188.843 214.098 190.301 215.311 192.102 215.311H210.437C212.237 215.311 213.693 214.098 213.693 212.598C213.693 211.1 212.237 209.885 210.437 209.885V209.885Z" fill="#F0544B"/>
<path d="M176.946 209.885H102.739C100.941 209.885 99.4824 211.1 99.4824 212.598C99.4824 214.098 100.941 215.311 102.739 215.311H176.946C178.746 215.311 180.203 214.098 180.203 212.598C180.203 211.1 178.746 209.885 176.946 209.885Z" fill="#F0544B"/>
<path d="M210.437 168.458H102.739C100.941 168.458 99.4824 169.672 99.4824 171.171C99.4824 172.669 100.941 173.883 102.739 173.883H210.437C212.237 173.883 213.694 172.669 213.694 171.171C213.694 169.672 212.237 168.458 210.437 168.458Z" fill="#F0544B"/>
<path d="M208.625 134.82H205.464C204.244 116.126 187.839 100.743 166.37 97.1018L166.998 92.0965C167.205 90.4629 166.564 88.8266 165.245 87.6077C163.926 86.3875 162.039 85.688 160.068 85.688H153.11C151.137 85.688 149.252 86.3889 147.931 87.6077C146.612 88.828 145.973 90.4643 146.179 92.0965L146.808 97.1018C125.338 100.743 108.934 116.125 107.714 134.818H104.553C101.757 134.818 99.4824 136.713 99.4824 139.042V144.64C99.4824 146.969 101.757 148.864 104.553 148.864H208.623C211.419 148.864 213.694 146.969 213.694 144.64V139.042C213.694 136.714 211.421 134.82 208.625 134.82V134.82ZM152.771 91.2392C152.862 91.1568 152.974 91.1149 153.11 91.1149H160.068C160.202 91.1149 160.316 91.1568 160.406 91.2392C160.497 91.323 160.535 91.4221 160.52 91.5324L159.912 96.3799C158.814 96.3185 157.706 96.2836 156.59 96.2836C155.472 96.2836 154.365 96.3185 153.268 96.3799L152.657 91.5324C152.644 91.4221 152.683 91.323 152.771 91.2392ZM207.18 143.438H105.998V140.245H119.723C121.523 140.245 122.982 139.03 122.982 137.532C122.982 136.034 121.523 134.82 119.723 134.82H114.241C115.632 116.368 134.093 101.711 156.588 101.711C179.085 101.711 197.546 116.368 198.937 134.82H134.879C133.079 134.82 131.622 136.034 131.622 137.532C131.622 139.03 133.079 140.245 134.879 140.245H207.18V143.438Z" fill="#F0544B"/>
<path d="M233.705 59H79.4728C74.9004 59 71.1794 62.0995 71.1794 65.9083V70.8089H68.1406C62.549 70.8089 58 74.5995 58 79.2572C58 83.9148 62.549 87.7054 68.1406 87.7054H71.1794V99.3063H68.1406C62.549 99.3063 58 103.096 58 107.755C58 112.412 62.549 116.201 68.1406 116.201H71.1794V127.804H68.1406C62.549 127.804 58 131.593 58 136.252C58 140.91 62.549 144.699 68.1406 144.699H71.1794V156.301H68.1406C62.549 156.301 58 160.09 58 164.748C58 169.407 62.549 173.196 68.1406 173.196H71.1794V184.799H68.1406C62.549 184.799 58 188.588 58 193.245C58 197.904 62.549 201.694 68.1406 201.694H71.1794V213.296H68.1406C62.549 213.296 58 217.085 58 221.743C58 226.4 62.549 230.191 68.1406 230.191H71.1794V235.092C71.1794 238.9 74.9004 242 79.4728 242H233.705C238.277 242 242 238.9 242 235.092V65.9083C242 62.0995 238.277 59 233.705 59V59ZM71.1777 82.2799H68.1406C66.1409 82.2799 64.5134 80.9242 64.5134 79.2572C64.5134 77.5915 66.1409 76.2358 68.1406 76.2358H71.1777V82.2799ZM71.1777 110.776H68.1406C66.1409 110.776 64.5134 109.42 64.5134 107.755C64.5134 106.088 66.1409 104.733 68.1406 104.733H71.1777V110.776ZM71.1777 139.273H68.1406C66.1409 139.273 64.5134 137.918 64.5134 136.252C64.5134 134.585 66.1409 133.229 68.1406 133.229H71.1777V139.273ZM71.1777 167.771H68.1406C66.1409 167.771 64.5134 166.415 64.5134 164.748C64.5134 163.082 66.1409 161.727 68.1406 161.727H71.1777V167.771ZM71.1777 196.267H68.1406C66.1409 196.267 64.5134 194.912 64.5134 193.245C64.5134 191.58 66.1409 190.224 68.1406 190.224H71.1777V196.267ZM71.1777 224.764H68.1406C66.1409 224.764 64.5134 223.408 64.5134 221.743C64.5134 220.076 66.1409 218.722 68.1406 218.722H71.1777V224.764ZM235.485 235.09C235.485 235.908 234.687 236.574 233.705 236.574H79.4728C78.4906 236.574 77.6928 235.908 77.6928 235.09V65.9083C77.6928 65.0915 78.4906 64.4256 79.4728 64.4256H233.705C234.687 64.4256 235.485 65.0915 235.485 65.9083V235.09Z" fill="#F0544B"/>
</svg>
