<svg width="300" height="300" viewBox="0 0 300 300" fill="none" xmlns="http://www.w3.org/2000/svg">
<path d="M229.379 199.3H210.448V68.15C210.441 65.7255 209.441 63.4024 207.668 61.688C205.894 59.9736 203.491 59.0072 200.983 59H62.1552C61.3184 59 60.5158 59.3213 59.9241 59.8933C59.3324 60.4653 59 61.2411 59 62.05V238.95C59 239.759 59.3324 240.535 59.9241 241.107C60.5158 241.679 61.3184 242 62.1552 242H200.983C203.491 241.993 205.894 241.026 207.668 239.312C209.441 237.598 210.441 235.274 210.448 232.85V223.7H229.379C232.727 223.7 235.937 222.415 238.303 220.127C240.67 217.839 242 214.736 242 211.5C242 208.264 240.67 205.161 238.303 202.873C235.937 200.585 232.727 199.3 229.379 199.3ZM77.931 235.9H65.3103V65.1H77.931V235.9ZM204.138 232.85C204.138 233.659 203.806 234.435 203.214 235.007C202.622 235.579 201.82 235.9 200.983 235.9H84.2414V65.1H200.983C201.82 65.1 202.622 65.4213 203.214 65.9933C203.806 66.5653 204.138 67.3411 204.138 68.15V199.3H141.034C140.612 199.301 140.193 199.384 139.804 199.544L117.718 208.694C117.149 208.928 116.663 209.319 116.322 209.818C115.981 210.317 115.799 210.902 115.799 211.5C115.799 212.098 115.981 212.683 116.322 213.182C116.663 213.681 117.149 214.072 117.718 214.306L139.804 223.456C140.193 223.616 140.612 223.699 141.034 223.7H204.138V232.85ZM143.559 211.5L139.867 216.837L126.962 211.5L139.867 206.162L143.559 211.5ZM216.759 217.6H146.935L149.964 213.177C150.318 212.685 150.508 212.1 150.508 211.5C150.508 210.9 150.318 210.315 149.964 209.822L146.935 205.4H216.759V217.6ZM229.379 217.6H223.069V205.4H229.379C231.053 205.4 232.658 206.043 233.841 207.187C235.025 208.331 235.69 209.882 235.69 211.5C235.69 213.118 235.025 214.669 233.841 215.813C232.658 216.957 231.053 217.6 229.379 217.6Z" fill="#F0544B"/>
<path d="M106.328 138.3H182.052V144.4H106.328V138.3Z" fill="#F0544B"/>
<path d="M106 120H181.724V126.1H106V120Z" fill="#F0544B"/>
<path d="M105.672 101.7H181.396V107.8H105.672V101.7Z" fill="#F0544B"/>
<path d="M106.328 156.6H137.879V162.7H106.328V156.6Z" fill="#F0544B"/>
<path d="M144.189 156.6H182.052V162.7H144.189V156.6Z" fill="#F0544B"/>
</svg>
