<svg width="831" height="418" viewBox="0 0 831 418" fill="none" xmlns="http://www.w3.org/2000/svg">
<path d="M760.993 89.5501C756.338 89.5501 751.692 90.0131 747.13 90.9361C743.69 73.7667 732.568 59.1208 716.952 51.1934C701.34 43.266 682.952 42.9335 667.06 50.2891C652.678 10.6738 608.905 -9.78025 569.29 4.60158C529.675 18.9834 509.221 62.7597 523.602 102.372C488.9 103.469 461.488 132.192 462.007 166.907C462.529 201.625 490.793 229.509 525.514 229.565H760.993C799.654 229.565 831 198.222 831 159.557C831 120.893 799.654 89.5501 760.993 89.5501V89.5501Z" fill="white"/>
<path d="M298.993 277.55C294.338 277.55 289.692 278.013 285.13 278.936C281.69 261.767 270.568 247.121 254.952 239.193C239.34 231.266 220.952 230.933 205.06 238.289C190.678 198.674 146.905 178.22 107.29 192.602C67.6746 206.983 47.2205 250.76 61.6024 290.372C26.9001 291.469 -0.511715 320.192 0.00724852 354.907C0.52932 389.625 28.7927 417.509 63.5135 417.565H298.993C337.654 417.565 369 386.222 369 347.557C369 308.893 337.654 277.55 298.993 277.55V277.55Z" fill="white"/>
</svg>
