<svg width="846" height="875" viewBox="0 0 846 875" fill="none" xmlns="http://www.w3.org/2000/svg">
<path opacity="0.1" d="M833.808 347.57C855.801 384.023 843.661 431.735 823.556 473.314C760.392 603.907 628.036 706.444 491.452 790.604C441.995 821.076 390.151 850.437 333.289 865.172C217.553 895.17 91.5147 853.594 41.3314 768.819C24.2514 739.991 15.4744 707.464 9.32588 674.661C-1.61717 616.331 -4.49396 555.214 12.3607 494.978C24.4134 452.018 46.1642 410.493 70.6857 370.351C139.209 258.243 231.677 153.301 348.768 73.4088C400.126 38.3688 458.757 7.4246 520.958 1.34808C583.159 -4.72845 648.35 20.5542 663.257 70.0653C669.417 90.5352 666.754 112.975 663.912 134.887C659.719 167.15 655.207 199.873 660.902 230.924C666.809 263.001 687.148 303.636 728.542 306.03C772.977 308.512 811.842 311.165 833.808 347.57Z" fill="#F0544B"/>
</svg>
