<svg width="1004" height="835" viewBox="0 0 1004 835" fill="none" xmlns="http://www.w3.org/2000/svg">
<path opacity="0.1" d="M723.5 834.77C780.142 834.77 826.06 830.244 826.06 824.66C826.06 819.076 780.142 814.55 723.5 814.55C666.858 814.55 620.94 819.076 620.94 824.66C620.94 830.244 666.858 834.77 723.5 834.77Z" fill="#6C63FF"/>
<path opacity="0.1" d="M439.526 7.34561C484.696 -9.44439 539.686 4.99562 586.646 26.0556C734.136 92.2156 841.586 217.806 926.956 345.756C957.866 392.086 987.226 440.456 998.846 492.176C1022.51 597.446 960.796 706.426 855.846 744.616C820.156 757.616 780.946 762.946 741.676 765.916C671.846 771.206 599.546 769.106 530.276 749.516C480.876 735.516 434.146 712.996 389.326 688.116C264.156 618.596 149.846 528.316 67.5356 418.036C31.4356 369.666 0.895615 315.136 0.0156147 259.326C-0.864385 203.516 35.5056 147.436 95.3456 137.946C120.086 134.026 146.256 138.106 171.786 142.306C209.376 148.496 247.476 155.006 284.636 152.306C323.026 149.496 372.956 134.496 379.956 97.8456C387.366 58.4956 394.416 24.1156 439.526 7.34561Z" fill="#0F00FD"/>
<path opacity="0.1" d="M208.11 771.3C218.747 771.3 227.37 769.84 227.37 768.04C227.37 766.24 218.747 764.78 208.11 764.78C197.473 764.78 188.85 766.24 188.85 768.04C188.85 769.84 197.473 771.3 208.11 771.3Z" fill="#6C63FF"/>
<path opacity="0.1" d="M881.4 795.29C894.241 795.29 904.65 793.53 904.65 791.36C904.65 789.189 894.241 787.43 881.4 787.43C868.559 787.43 858.15 789.189 858.15 791.36C858.15 793.53 868.559 795.29 881.4 795.29Z" fill="#6C63FF"/>
<path d="M620.899 615.731L523.437 609.655L529.419 513.7L626.952 519.781L620.899 615.731ZM628.51 470.965L533.866 465.065C543.162 315.953 684.479 333.511 690.36 239.176C693.6 187.215 653.628 142.933 601.621 139.69C549.615 136.448 504.264 178.675 501.135 228.863L406.562 222.967C408.067 198.137 414.463 173.848 425.383 151.494C436.304 129.14 451.533 109.16 470.199 92.6998C488.864 76.2396 510.599 63.623 534.156 55.5734C557.713 47.5238 582.629 44.1997 607.475 45.7915C711.94 52.3042 791.417 140.853 784.919 245.071C777.566 363.029 634.882 367.616 628.439 470.961L628.51 470.965Z" fill="#6C63FF"/>
<path opacity="0.1" d="M291.14 380.39H273.3V362.77H291.14V380.39ZM290.87 353.89H273.57C273.57 326.59 299.52 328.18 299.52 310.89C299.511 308.628 299.056 306.389 298.182 304.303C297.307 302.217 296.03 300.323 294.423 298.73C292.817 297.138 290.912 295.877 288.818 295.021C286.724 294.165 284.482 293.729 282.22 293.74C277.651 293.845 273.301 295.717 270.083 298.961C266.865 302.206 265.029 306.571 264.96 311.14H247.66C247.775 302.061 251.453 293.39 257.901 286.998C264.35 280.605 273.052 277.003 282.132 276.968C291.212 276.932 299.942 280.467 306.44 286.808C312.939 293.15 316.684 301.792 316.87 310.87C316.82 332.47 290.87 334.93 290.87 353.85V353.89Z" fill="#6C63FF"/>
<path opacity="0.1" d="M426.22 502.8H408.38V485.23H426.22V502.8ZM425.96 476.31H408.66C408.66 449 434.61 450.6 434.61 433.31C434.601 431.048 434.146 428.811 433.271 426.725C432.397 424.639 431.12 422.746 429.513 421.154C427.906 419.562 426.001 418.303 423.907 417.447C421.814 416.592 419.572 416.158 417.31 416.17C412.722 416.253 408.347 418.117 405.109 421.368C401.871 424.619 400.024 429.002 399.96 433.59H382.66C382.775 424.511 386.453 415.84 392.901 409.448C399.35 403.056 408.052 399.453 417.132 399.418C426.212 399.382 434.942 402.917 441.44 409.259C447.939 415.6 451.684 424.242 451.87 433.32C451.9 454.92 425.96 457.39 425.96 476.31Z" fill="#6C63FF"/>
<path opacity="0.1" d="M508.36 286.1H495.43V273.39H508.36V286.1ZM508.17 266.89H495.63C495.63 247.11 514.44 248.26 514.44 235.74C514.432 234.101 514.102 232.48 513.467 230.969C512.833 229.457 511.907 228.086 510.742 226.933C509.578 225.78 508.198 224.867 506.68 224.247C505.163 223.627 503.539 223.312 501.9 223.32C498.581 223.387 495.419 224.741 493.079 227.095C490.739 229.45 489.406 232.621 489.36 235.94H476.82C476.793 229.288 479.41 222.899 484.095 218.176C488.78 213.454 495.148 210.786 501.8 210.76C508.452 210.733 514.841 213.35 519.564 218.035C524.286 222.72 526.954 229.088 526.98 235.74C526.96 251.39 508.17 253.18 508.17 266.89V266.89Z" fill="#6C63FF"/>
<path opacity="0.1" d="M729.2 304.04H721.89V296.84H729.2V304.04ZM729.09 293.19H721.96C721.96 282.01 732.59 282.66 732.59 275.58C732.59 274.654 732.406 273.737 732.05 272.883C731.693 272.028 731.17 271.253 730.512 270.602C729.853 269.951 729.072 269.437 728.213 269.09C727.355 268.743 726.436 268.569 725.51 268.58C723.635 268.619 721.848 269.383 720.525 270.713C719.203 272.043 718.448 273.835 718.42 275.71H711.33C711.413 272.015 712.935 268.498 715.573 265.908C718.211 263.319 721.755 261.862 725.451 261.848C729.148 261.833 732.703 263.263 735.361 265.831C738.019 268.4 739.569 271.905 739.68 275.6C739.72 284.39 729.09 285.44 729.09 293.19V293.19Z" fill="#6C63FF"/>
<path opacity="0.1" d="M840.96 631.51H833.65V624.31H840.96V631.51ZM840.85 620.66H833.76C833.76 609.47 844.4 610.13 844.4 603.05C844.387 601.182 843.633 599.396 842.303 598.083C840.974 596.771 839.178 596.039 837.31 596.05C835.434 596.086 833.646 596.85 832.323 598.181C831 599.511 830.246 601.304 830.22 603.18H823.13C823.213 599.485 824.735 595.968 827.373 593.378C830.011 590.789 833.555 589.332 837.251 589.318C840.948 589.303 844.503 590.733 847.161 593.302C849.819 595.87 851.369 599.375 851.48 603.07C851.52 611.9 840.89 612.91 840.89 620.66H840.85Z" fill="#6C63FF"/>
</svg>
