<?xml version="1.0" encoding="utf-8"?>
<!-- Generator: Adobe Illustrator 16.0.0, SVG Export Plug-In . SVG Version: 6.00 Build 0)  -->
<!DOCTYPE svg PUBLIC "-//W3C//DTD SVG 1.1//EN" "http://www.w3.org/Graphics/SVG/1.1/DTD/svg11.dtd">
<svg version="1.1" id="Layer_1" xmlns="http://www.w3.org/2000/svg" xmlns:xlink="http://www.w3.org/1999/xlink" x="0px" y="0px"
	 width="578.775px" height="151.898px" viewBox="0 0 578.775 151.898" enable-background="new 0 0 578.775 151.898"
	 xml:space="preserve">
<g>
	<path fill-rule="evenodd" clip-rule="evenodd" d="M211.599,111.507c0,5.005,4.143,9.321,9.322,9.321
		c4.659,0,8.285-3.28,9.147-7.423c6.561,4.488,14.846,7.423,23.476,7.423c23.303,0,41.945-19.679,41.945-42.98
		c0-23.648-18.642-43.326-41.945-43.326c-8.458,0-16.744,2.761-23.131,7.249V9.32c0-5.006-4.143-9.32-9.492-9.32
		c-5.179,0-9.322,4.314-9.322,9.32v68.353c0,0,0,0,0,0.174l0,0V111.507L211.599,111.507z M237.319,60.412
		c4.314-4.487,9.838-7.076,16.225-7.076c6.213,0,11.91,2.588,16.226,7.076c4.315,4.317,6.903,10.53,6.903,17.436
		c0,6.561-2.588,12.773-6.903,17.089c-4.316,4.487-10.012,7.077-16.226,7.077c-6.387,0-11.911-2.59-16.225-7.077
		c-4.316-4.316-6.906-10.528-6.906-17.089C230.414,70.942,233.003,64.729,237.319,60.412L237.319,60.412z M482.123,78.019
		L482.123,78.019v-34.35c0-5.006-3.969-9.147-9.148-9.147c-4.486,0-8.284,3.106-9.146,7.249c-6.216-4.488-14.154-7.249-23.132-7.249
		c-11.392,0-21.922,5.005-29.344,12.772c-7.423,8.114-12.083,18.815-12.083,30.725c0,12.084,4.66,22.785,12.083,30.381
		c7.422,8.112,17.952,13.118,29.344,13.118l0,0c8.457,0,16.397-2.588,22.611-6.905c-2.244,10.587-11.391,18.643-22.611,18.643
		c-3.625,0-6.904-0.863-9.84-2.444c-4.834-2.101-10.183-0.346-12.427,4.342c-2.416,4.662-0.347,10.358,4.142,12.431
		c5.351,2.76,11.739,4.314,18.125,4.314c22.957,0,41.426-18.814,41.426-41.6V78.192V78.019L482.123,78.019z M457.095,95.799
		c-4.488,4.66-9.839,7.078-16.397,7.078c-6.044,0-11.738-2.418-15.881-7.078c-4.142-3.971-6.903-10.529-6.903-17.78
		c0-6.903,2.762-13.464,6.903-17.607c4.143-4.833,9.837-7.421,15.881-7.421c6.559,0,11.909,2.589,16.397,7.421
		c3.799,4.143,6.56,10.704,6.56,17.607C463.654,85.27,460.894,91.828,457.095,95.799L457.095,95.799z M577.685,43.843
		c0-5.179-4.143-9.321-9.147-9.321c-4.486,0-7.939,3.279-8.975,7.593c-6.562-4.659-14.327-7.593-22.96-7.593
		c-11.737,0-21.92,5.005-29.343,12.946c-7.422,7.766-11.738,18.469-11.738,30.379c0,11.737,4.316,22.439,11.738,30.379
		c7.423,7.768,17.605,12.601,29.343,12.601l0,0c8.633,0,16.398-2.762,22.96-7.423c1.035,4.143,4.488,7.423,8.975,7.423
		c5.005,0,9.147-4.143,9.147-9.148V77.848l0,0l0,0V43.843L577.685,43.843z M552.656,95.627c-4.144,4.314-10.011,6.732-16.054,6.732
		c-6.213,0-12.082-2.418-16.053-6.732c-4.143-4.488-6.559-10.703-6.559-17.779c0-7.249,2.416-13.464,6.559-17.78
		c3.971-4.659,9.84-7.077,16.053-7.077c6.043,0,11.91,2.417,16.054,7.077c4.143,4.316,6.731,10.531,6.731,17.78
		C559.388,84.924,556.799,91.139,552.656,95.627z"/>
	<path fill-rule="evenodd" clip-rule="evenodd" d="M303.961,104.199l-26.073,26.195c-4.611,4.632-4.593,12.194,0.04,16.804v0.001
		c4.632,4.609,12.193,4.591,16.804-0.04l26.071-26.194C313.949,116.791,308.166,111.032,303.961,104.199L303.961,104.199z
		 M347.089,34.263c23.996,0,43.45,19.453,43.45,43.451c0,23.997-19.454,43.45-43.45,43.45c-23.998,0-43.452-19.454-43.452-43.45
		C303.637,53.716,323.091,34.263,347.089,34.263L347.089,34.263z M347.089,45.688c17.686,0,32.024,14.338,32.024,32.026
		c0,17.687-14.339,32.024-32.024,32.024c-17.689,0-32.026-14.338-32.026-32.024C315.063,60.026,329.399,45.688,347.089,45.688z"/>
	<path fill-rule="evenodd" clip-rule="evenodd" fill="#EF4136" d="M331.674,85.683c0-3.519,1.616-3.787,1.951-2.389
		c0.39,1.634-0.188,6.274,1.674,8.747c0.687,0.912,2.407,1.891,3.525,2.429c0.683,0.329,1.482,0.553,2.236,0.741
		c0.431,0.106,0.767,0.183,1.191,0.297c0.141,0.038,0.378,0.101,0.539,0.162c0.313,0.117,0.324,0.063,0.355,0.434
		c-0.523,0.122-0.637,0.263-1.313,0.263c-2.46,0-6.217-1.746-7.468-2.954c-1.207-1.167-1.346-1.467-1.937-3.232
		C332.031,88.998,331.674,87.211,331.674,85.683L331.674,85.683z M332.287,71.67c0-3.731,7.977-7.415,4.881-4.227
		c-0.187,0.191-0.192,0.241-0.354,0.434c-2.73,3.249-1.911,3.862-2.747,4.785c-0.555,0.612-1.347,0.02-1.551-0.345
		C332.449,72.202,332.287,71.789,332.287,71.67L332.287,71.67z M342.271,63.263v-0.701c0-2.371,5.374-3.119,6.624-2.595
		c0.641,0.27,1.258,1.119,1.258,1.982c0,0.222-1.525,0.311-1.912,0.365c-0.633,0.09-1.301,0.184-1.979,0.297L342.271,63.263
		L342.271,63.263z M339.906,61.598c0,0.764,0.032,1.529,0.35,2.19c-1.192,0.278-3.438,1.161-4.64,1.753
		c-2.075,1.022-6.289,3.203-5.8,6.14c0.175,1.041,0.655,1.681,1.556,2.217c0.852,0.508,1.603,0.729,2.73,0.947
		c1.482,0.287,5.686,0.465,7.53,0.216s3.581-0.368,5.578-0.727c3.321-0.595,6.676-1.52,9.627-2.898
		c1.973-0.922,6.625-3.355,6.625-5.985v-0.351c0-2.581-5.532-3.253-7.616-3.241c-1.228,0.007-2.454,0.001-3.68,0.001
		c0.273-0.662-0.416-4.467-4.379-4.467C345.354,57.395,339.906,58.657,339.906,61.598L339.906,61.598z M365.04,70.707
		c0.118,0.439,0.371,0.463,0.859,0.542c1.582,0.251,3.344,0.027,3.344,1.297c0,0.426-0.905,0.772-1.299,0.889
		c-0.659,0.193-1.17,0.162-2.027,0.162c-0.546-2.335-4.446-3.091-5.138-2.421l-0.081,0.095c-0.007,0.01-0.023,0.034-0.037,0.049
		c0.2,0.86,1.171,0.864,1.943,1.474c0.792,0.626,0.576,0.993-0.077,1.795c-1.18,1.45-3.431,2.83-5.122,3.634
		c-3.064,1.458-4.751,1.765-8.342,2.257c-1.064,0.145-2.234,0.139-3.227,0.274c-0.773,0.107-3.729,0.111-4.705,0.111
		c-2.391,0-8.428-0.116-10.227-1.77c-1.725-1.587,0.394-3.354,0.506-3.834c-0.691-0.366-3.065-0.573-3.065,1.927l0.087,3.066
		c-0.011,1.104,0.802,3.358-2.19,1.227c-0.769-0.548-1.745-1.968-0.4-2.768c0.808-0.482,0.839-0.327,0.839-0.824
		c0-1.163-4.115-0.791-4.115,2.714c0,2.185,3.658,3.675,5.268,4.279c0.344,0.129,0.735,0.217,1.038,0.363
		c0,3.57,0.773,7.777,3.882,9.605c3.939,2.318,7.454,3.181,13.108,3.181c5.271,0,11.188-1.546,14.794-3.42
		c0.223-0.115,0.397-0.235,0.678-0.374c2.061-1.016,3.175-2.477,4.215-4.368c1.675-3.048,1.341-7.854,0.918-11.215
		c-0.206-1.635-0.109-1.671,1.166-2.553c1.103-0.761,3.978-2.326,3.978-3.904c0-2.125-3.359-2.604-5.485-2.069
		C365.605,70.256,365.288,70.336,365.04,70.707z"/>
	<path fill-rule="evenodd" clip-rule="evenodd" fill="#EF4136" d="M46.883,122.3c-8.807,0-16.513-1.871-23.117-5.614
		c-6.605-3.744-11.723-8.889-15.355-15.439c-3.633-6.549-5.449-14.118-5.449-22.703c0-9.579,1.899-17.751,5.697-24.521
		c3.797-6.769,8.723-11.943,14.777-15.521c6.055-3.577,12.494-5.366,19.319-5.366c5.173,0,10.099,0.936,14.778,2.807
		c4.678,1.872,8.861,4.596,12.548,8.173c3.688,3.579,6.633,7.872,8.834,12.88c2.203,5.008,3.358,10.595,3.469,16.759
		c-0.111,1.762-0.826,3.247-2.147,4.458c-1.321,1.21-2.862,1.816-4.624,1.816H10.392L7.42,68.635h63.571l-2.641,2.313v-3.632
		c-0.332-4.514-1.791-8.394-4.376-11.642c-2.587-3.247-5.751-5.751-9.494-7.514c-3.743-1.76-7.65-2.641-11.724-2.641
		c-3.302,0-6.578,0.578-9.825,1.734c-3.248,1.156-6.165,3.026-8.751,5.614c-2.587,2.587-4.651,5.917-6.192,9.989
		c-1.541,4.073-2.313,8.971-2.313,14.696c0,6.385,1.293,11.999,3.881,16.842c2.587,4.844,6.192,8.67,10.814,11.477
		c4.625,2.807,9.963,4.21,16.018,4.21c3.963,0,7.375-0.496,10.237-1.485c2.862-0.992,5.312-2.23,7.348-3.716
		c2.037-1.486,3.77-3,5.201-4.541c1.431-0.991,2.863-1.487,4.293-1.487c1.541,0,2.863,0.551,3.963,1.652
		c1.102,1.102,1.651,2.421,1.651,3.963c0,1.872-0.88,3.523-2.642,4.954c-3.192,3.413-7.402,6.412-12.631,9
		C58.58,121.006,52.938,122.3,46.883,122.3L46.883,122.3z M155.532,108.43c1.762,0,3.248,0.578,4.458,1.732
		c1.211,1.158,1.817,2.615,1.817,4.377c0,1.651-0.606,3.081-1.817,4.293c-1.21,1.21-2.697,1.816-4.458,1.816h-53.498
		c-1.982,0-3.522-0.715-4.625-2.146c-1.1-1.432-1.65-2.751-1.65-3.962c0.109-1.102,0.274-2.038,0.496-2.808
		c0.219-0.771,0.714-1.651,1.486-2.641l47.224-63.901l0.165,1.816h-39.959c-1.762,0-3.248-0.605-4.458-1.816
		c-1.21-1.211-1.816-2.698-1.816-4.458c0-1.65,0.606-3.055,1.816-4.211c1.21-1.155,2.697-1.734,4.458-1.734h50.692
		c1.761,0,3.219,0.633,4.375,1.899c1.155,1.267,1.734,2.834,1.734,4.707c-0.11,0.77-0.275,1.513-0.495,2.229
		c-0.22,0.715-0.661,1.569-1.321,2.558l-46.729,63.077l-1.156-0.826H155.532L155.532,108.43z M193.509,113.878
		c0,1.873-0.632,3.467-1.899,4.789c-1.265,1.322-2.834,1.981-4.705,1.981c-1.982,0-3.579-0.66-4.79-1.981
		c-1.211-1.321-1.816-2.916-1.816-4.789V40.565c0-1.871,0.633-3.439,1.899-4.705c1.267-1.267,2.834-1.899,4.707-1.899
		c1.871,0,3.439,0.632,4.705,1.899c1.267,1.265,1.899,2.834,1.899,4.705V113.878L193.509,113.878z M186.906,22.898
		c-2.752,0-4.79-0.551-6.11-1.651c-1.321-1.101-1.982-2.807-1.982-5.119v-2.312c0-2.312,0.717-4.017,2.147-5.119
		c1.431-1.101,3.467-1.651,6.109-1.651s4.623,0.55,5.945,1.651c1.321,1.103,1.98,2.808,1.98,5.119v2.312
		c0,2.313-0.687,4.018-2.064,5.119C191.556,22.347,189.546,22.898,186.906,22.898z"/>
</g>
</svg>
