<svg width="354" height="500" viewBox="0 0 354 500" fill="none" xmlns="http://www.w3.org/2000/svg">
<path d="M177 8.73006C236.532 83.3751 261.929 179.454 247.259 274.034L247.259 274.034L231.915 373H122.084L106.741 274.034L106.741 274.034C92.0714 179.454 117.468 83.3751 177 8.73006Z" fill="#E2E9F2" stroke="#FCFCFC" stroke-width="10"/>
<path d="M117.8 378H235.8V411.2H117.8V378Z" fill="#5E3369"/>
<path d="M177 499.2C149.4 480.8 138.6 444.8 151.8 414.4L153 411.2H201L202.2 414.4C215.4 444.8 204.6 480.4 177 499.2Z" fill="url(#paint0_diamond)"/>
<path d="M177 499.2C149.4 480.8 138.6 444.8 151.8 414.4L153 411.2H201L202.2 414.4C215.4 444.8 204.6 480.4 177 499.2Z" fill="url(#paint1_linear)"/>
<path d="M177 226C198.429 226 215.8 210.061 215.8 190.4C215.8 170.739 198.429 154.8 177 154.8C155.572 154.8 138.2 170.739 138.2 190.4C138.2 210.061 155.572 226 177 226Z" fill="#8AC9FF"/>
<path d="M97.4552 279.311L108.927 351.366L5.81372 374.883C8.11116 340.981 28.776 310.849 59.8848 296.545C59.8852 296.545 59.8855 296.544 59.8859 296.544C59.8868 296.544 59.8878 296.543 59.8888 296.543L97.4552 279.311Z" fill="#8AC9FF" stroke="#FCFCFC" stroke-width="10"/>
<path d="M256.545 279.311L294.111 296.543C294.112 296.543 294.113 296.544 294.114 296.544C294.115 296.544 294.115 296.545 294.115 296.545C325.224 310.849 345.889 340.981 348.187 374.883L245.074 351.366L256.545 279.311Z" fill="#8AC9FF" stroke="#FCFCFC" stroke-width="10"/>
<path d="M119.4 101.2H234.6C229.4 87.6 223.4 74 217 61.2H137.4C130.6 74 124.6 87.2 119.4 101.2Z" fill="#5E3369"/>
<path d="M204.2 289.2H149.8C145.8 289.2 142.6 286 142.6 282C142.6 278 145.8 274.8 149.8 274.8H204.6C208.6 274.8 211.8 278 211.8 282C211.8 286 208.2 289.2 204.2 289.2V289.2Z" fill="#C1CEDB"/>
<path d="M191 325.6H163C159 325.6 155.8 322.4 155.8 318.4C155.8 314.4 159 311.2 163 311.2H191C195 311.2 198.2 314.4 198.2 318.4C198.2 322.4 195 325.6 191 325.6Z" fill="#C1CEDB"/>
<defs>
<radialGradient id="paint0_diamond" cx="0" cy="0" r="1" gradientUnits="userSpaceOnUse" gradientTransform="translate(197 431.5) rotate(106.458) scale(70.5925 49.4225)">
<stop offset="0.421875" stop-color="#FFBD4A"/>
<stop offset="1" stop-color="#EE5600" stop-opacity="0"/>
</radialGradient>
<linearGradient id="paint1_linear" x1="177" y1="411.2" x2="177" y2="499.2" gradientUnits="userSpaceOnUse">
<stop stop-color="#FFBD4A"/>
<stop offset="0.630208" stop-color="#FF604A"/>
</linearGradient>
</defs>
</svg>
