<svg width="37" height="37" viewBox="0 0 37 37" fill="none" xmlns="http://www.w3.org/2000/svg">
<path d="M36.6396 0.151202C36.3728 -0.0352427 36.0237 -0.0499848 35.7421 0.110996L0.424037 20.2927C0.135816 20.457 -0.0284757 20.7756 0.00439851 21.1058C0.0372727 21.4359 0.260612 21.716 0.575164 21.8203L11.122 25.3356L15.1875 36.4482C15.3099 36.7825 15.6277 37.0001 15.9767 37.0001C16.0087 37.0001 16.0416 36.9984 16.0736 36.9943C16.3008 36.9682 16.4919 36.846 16.6271 36.6765L16.6353 36.6831L22.6181 29.1679L30.8478 31.9111C30.9348 31.9407 31.0244 31.9546 31.1139 31.9546C31.265 31.9546 31.4152 31.9136 31.5474 31.834C31.7585 31.7075 31.903 31.4948 31.9433 31.2518L36.9887 0.979127C37.0421 0.658663 36.9066 0.33678 36.6396 0.151202ZM2.89173 20.8199L30.8732 4.8299L11.5521 23.7068L2.89173 20.8199ZM16.4842 25.9615C16.398 26.0789 16.3429 26.216 16.3258 26.3606L15.5662 32.5869L12.7495 24.8882L29.1956 8.8206L16.4842 25.9615ZM17.1721 33.3082L17.8704 27.5852L20.9192 28.6015L17.1721 33.3082ZM30.4462 30.005L18.5267 26.0319L34.7556 4.14624L30.4462 30.005Z" fill="#333333" fill-opacity="0.6"/>
</svg>
